<?xml version="1.0" standalone="no"?>
<!DOCTYPE svg PUBLIC "-//W3C//DTD SVG 20010904//EN"
 "http://www.w3.org/TR/2001/REC-SVG-20010904/DTD/svg10.dtd">
<svg version="1.0" xmlns="http://www.w3.org/2000/svg"
 width="74.000000pt" height="59.000000pt" viewBox="0 0 74.000000 59.000000"
 preserveAspectRatio="xMidYMid meet">

<g transform="translate(0.000000,59.000000) scale(0.100000,-0.100000)"
fill="#000000" stroke="none">
<path d="M207 543 c95 -2 251 -2 345 0 95 1 18 3 -172 3 -190 0 -267 -2 -173
-3z"/>
<path d="M103 523 c37 -2 96 -2 130 0 34 2 4 3 -68 3 -72 0 -99 -1 -62 -3z"/>
<path d="M462 513 c49 -2 127 -2 175 0 49 1 9 3 -87 3 -96 0 -136 -2 -88 -3z"/>
<path d="M207 493 c95 -2 251 -2 345 0 95 1 18 3 -172 3 -190 0 -267 -2 -173
-3z"/>
<path d="M48 463 c12 -2 30 -2 40 0 9 3 -1 5 -23 4 -22 0 -30 -2 -17 -4z"/>
<path d="M382 463 c59 -2 158 -2 220 0 62 1 14 3 -107 3 -121 0 -172 -2 -113
-3z"/>
<path d="M418 433 c57 -2 147 -2 200 0 53 1 7 3 -103 3 -110 0 -154 -2 -97 -3z"/>
<path d="M119 397 c-74 -50 -101 -132 -74 -224 45 -150 220 -164 280 -21 65
158 -79 331 -206 245z"/>
<path d="M443 403 c54 -2 139 -2 190 0 51 1 7 3 -98 3 -104 0 -146 -2 -92 -3z"/>
<path d="M433 383 c43 -2 110 -2 150 0 40 1 5 3 -78 3 -82 0 -115 -2 -72 -3z"/>
<path d="M463 353 c48 -2 125 -2 170 0 45 1 6 3 -88 3 -93 0 -130 -2 -82 -3z"/>
<path d="M433 333 c26 -2 68 -2 95 0 26 2 4 3 -48 3 -52 0 -74 -1 -47 -3z"/>
<path d="M628 323 c18 -2 45 -2 60 0 15 2 0 4 -33 4 -33 0 -45 -2 -27 -4z"/>
<path d="M478 303 c46 -2 118 -2 160 0 42 1 5 3 -83 3 -88 0 -123 -2 -77 -3z"/>
<path d="M478 273 c45 -2 119 -2 165 0 45 1 8 3 -83 3 -91 0 -128 -2 -82 -3z"/>
<path d="M473 253 c43 -2 110 -2 150 0 40 1 5 3 -78 3 -82 0 -115 -2 -72 -3z"/>
<path d="M478 223 c46 -2 118 -2 160 0 42 1 5 3 -83 3 -88 0 -123 -2 -77 -3z"/>
<path d="M502 193 c37 -2 100 -2 140 0 40 1 10 3 -67 3 -77 0 -110 -1 -73 -3z"/>
<path d="M478 173 c46 -2 118 -2 160 0 42 1 5 3 -83 3 -88 0 -123 -2 -77 -3z"/>
<path d="M473 143 c48 -2 125 -2 170 0 45 1 6 3 -88 3 -93 0 -130 -2 -82 -3z"/>
<path d="M413 123 c20 -2 54 -2 75 0 20 2 3 4 -38 4 -41 0 -58 -2 -37 -4z"/>
<path d="M573 113 c26 -2 68 -2 95 0 26 2 4 3 -48 3 -52 0 -74 -1 -47 -3z"/>
<path d="M413 93 c26 -2 67 -2 90 0 23 2 2 3 -48 3 -49 0 -68 -1 -42 -3z"/>
<path d="M598 83 c23 -2 59 -2 80 0 20 2 1 4 -43 4 -44 0 -61 -2 -37 -4z"/>
<path d="M428 63 c45 -2 119 -2 165 0 45 1 8 3 -83 3 -91 0 -128 -2 -82 -3z"/>
</g>
</svg>
