<?xml version="1.0" standalone="no"?>
<!DOCTYPE svg PUBLIC "-//W3C//DTD SVG 20010904//EN"
 "http://www.w3.org/TR/2001/REC-SVG-20010904/DTD/svg10.dtd">
<svg version="1.0" xmlns="http://www.w3.org/2000/svg"
 width="300.000000pt" height="93.000000pt" viewBox="0 0 300.000000 93.000000"
 preserveAspectRatio="xMidYMid meet">

<g transform="translate(0.000000,93.000000) scale(0.100000,-0.100000)"
fill="#000000" stroke="none">
<path d="M15 918 c-3 -7 -4 -213 -3 -458 l3 -445 132 -3 133 -3 0 116 0 115
203 2 202 3 3 138 3 137 -206 0 -205 0 0 65 0 65 205 0 205 0 0 140 0 140
-335 0 c-259 0 -337 -3 -340 -12z"/>
<path d="M784 916 c-3 -7 -4 -155 -2 -327 l3 -314 27 -57 c113 -243 448 -273
593 -55 60 90 66 136 63 468 l-3 294 -338 3 c-282 2 -338 0 -343 -12z"/>
<path d="M1560 470 l0 -460 338 2 337 3 0 135 0 135 -202 3 -203 2 0 320 0
320 -135 0 -135 0 0 -460z"/>
<path d="M2315 918 c-3 -7 -4 -213 -3 -458 l3 -445 338 -3 337 -2 0 140 0 140
-200 0 -200 0 -2 318 -3 317 -133 3 c-100 2 -134 -1 -137 -10z"/>
</g>
</svg>
